<?xml version="1.0" encoding="UTF-8"?>
<svg width="36px" height="36px" viewBox="0 0 36 36" version="1.1" xmlns="http://www.w3.org/2000/svg" xmlns:xlink="http://www.w3.org/1999/xlink" style="background: #FFFFFF;">
    <!-- Generator: Sketch 47.1 (45422) - http://www.bohemiancoding.com/sketch -->
    <title>default_user_icon</title>
    <desc>Created with Sketch.</desc>
    <defs></defs>
    <g id="Page-1" stroke="none" stroke-width="1" fill="none" fill-rule="evenodd">
        <g id="default_user_icon">
            <rect id="Rectangle-10" fill="#FFFFFF" x="0" y="0" width="36" height="36"></rect>
            <path d="M21.7408607,18.7483725 C24.9840583,20.432732 27.2307692,24.0365273 27.2307692,28.2014211 L27.2307692,29.8123857 C27.2307692,30.4686848 26.7032485,31 26.0528154,31 C25.4023823,31 24.8748615,30.4686848 24.8748615,29.8123857 L24.8748615,28.2014211 C24.8748615,23.7397566 21.6179484,20.1099009 17.6151209,20.1099009 C13.6122933,20.1099009 10.3559077,23.7397566 10.3559077,28.2014211 L10.3559077,29.8123857 C10.3559077,30.4686848 9.82838695,31 9.17795385,31 C8.52699324,31 8,30.4686848 8,29.8123857 L8,28.2014211 C8,24.0365273 10.2467109,20.432732 13.4899085,18.7483725 C11.7501451,17.463962 10.6180855,15.3908224 10.6180855,13.0549504 C10.6180855,9.16502149 13.756834,6 17.6151209,6 C21.4739352,6 24.6126837,9.16502149 24.6126837,13.0549504 C24.6126837,15.3908224 23.4800966,17.463962 21.7408607,18.7483725 Z M12.9145299,13.0512821 C12.9145299,15.6432173 14.9754023,17.7521368 17.5082859,17.7521368 C20.0416917,17.7521368 22.1025641,15.6432173 22.1025641,13.0512821 C22.1025641,10.4593468 20.0416917,8.35042735 17.5082859,8.35042735 C14.9754023,8.35042735 12.9145299,10.4593468 12.9145299,13.0512821 Z" id="teams-copy-2" fill="#4A4A4A"></path>
        </g>
    </g>
</svg>